Coordinates
version=1
nRows=8
nColumns=46
inDegrees=yes

Units are S.I. units (second, meters, Newtons, ...)
Angles are in degrees.

endheader
time	pelvis_tilt	pelvis_list	pelvis_rotation	pelvis_tx	pelvis_ty	pelvis_tz	bb_angle	bb_tx	bb_ty	bb_tz	hip_flexion_r	hip_adduction_r	hip_rotation_r	knee_angle_r	knee_angle_r_beta	ankle_angle_r	subtalar_angle_r	mtp_angle_r	crank_angle_r	hip_flexion_l	hip_adduction_l	hip_rotation_l	knee_angle_l	knee_angle_l_beta	ankle_angle_l	subtalar_angle_l	mtp_angle_l	crank_angle_l	lumbar_extension	lumbar_bending	lumbar_rotation	arm_flex_r	arm_add_r	arm_rot_r	elbow_flex_r	pro_sup_r	wrist_flex_r	wrist_dev_r	arm_flex_l	arm_add_l	arm_rot_l	elbow_flex_l	pro_sup_l	wrist_flex_l	wrist_dev_l
      5.00000000	     27.77055035	     18.97404410	     23.32770036	      0.08131218	      1.04377406	     -0.27156630	      0.00000000	      0.50000000	      0.00000000	      0.25000000	     -2.93380885	    -38.43226619	    -39.89738520	     66.05563115	      1.15288825	     10.98507647	     17.70155463	      0.00000000	      0.00000000	     53.04888708	     23.50193075	      6.71075691	    129.79436057	      2.26533894	      2.18773879	     -1.80781074	      0.00000000	      0.00000000	    -89.95222058	     15.44736458	      1.58223715	    -60.75007112	   -119.85548936	    -73.71571134	     69.68828313	     21.43657053	      0.00000000	      0.00000000	     89.84215393	     13.76613840	     42.19955762	     31.96760598	     17.22035051	      0.00000000	      0.00000000
      5.00500000	     27.94554470	     18.07577422	     22.83814415	      0.08212654	      1.04406017	     -0.26974289	      0.00000000	      0.50000000	      0.00000000	      0.25000000	     -3.33034725	    -37.04348762	    -39.90102318	     65.43607794	      1.14207501	      9.82418570	     17.75264196	      0.00000000	      0.00000000	     54.49422833	     22.28447620	      6.89979782	    130.31029341	      2.27434367	      2.58973420	     -1.07674400	      0.00000000	      0.00000000	    -89.95303609	     14.91704487	      2.78820516	    -60.78810468	   -119.85526725	    -73.47987212	     69.02908289	     21.36109965	      0.00000000	      0.00000000	     89.84090933	     14.21936855	     42.15735353	     31.71899875	     17.19848907	      0.00000000	      0.00000000
      5.01000000	     27.96277030	     17.63828268	     22.44134924	      0.08270166	      1.04426033	     -0.26832671	      0.00000000	      0.50000000	      0.00000000	      0.25000000	     -3.65704047	    -36.42862453	    -39.90501038	     65.21954379	      1.13829578	      8.58884270	     17.76334879	      0.00000000	      0.00000000	     55.96298144	     21.62731350	      6.63332916	    130.56461291	      2.27878238	      2.71941412	     -0.90255946	      0.00000000	      0.00000000	    -89.95341757	     14.54070229	      3.38300441	    -60.26226164	   -119.85388126	    -72.79945414	     69.02848635	     21.82827805	      0.00000000	      0.00000000	     89.83742336	     14.20696138	     41.84190699	     32.05115085	     17.81741750	      0.00000000	      0.00000000
      5.01500000	     28.05935298	     17.09361687	     22.06486673	      0.08324423	      1.04479432	     -0.26691021	      0.00000000	      0.50000000	      0.00000000	      0.25000000	     -4.03610936	    -35.64662386	    -39.90710334	     64.94545647	      1.13351205	      7.21272475	     18.07000639	      0.00000000	      0.00000000	     57.18048793	     20.90472952	      6.62596494	    130.68344348	      2.28085637	      3.06086156	     -0.46462077	      0.00000000	      0.00000000	    -89.95415598	     14.13209610	      4.14874321	    -59.82876155	   -119.85439324	    -71.90110870	     68.55888896	     22.34335645	      0.00000000	      0.00000000	     89.83399134	     14.45636802	     41.56287198	     31.93390918	     18.48397808	      0.00000000	      0.00000000
      5.02000000	     28.26062491	     16.44937861	     21.77173385	      0.08364944	      1.04525740	     -0.26570884	      0.00000000	      0.50000000	      0.00000000	      0.25000000	     -4.42413450	    -34.73657320	    -39.90813024	     64.84620469	      1.13177978	      6.03737012	     17.97592710	      0.00000000	      0.00000000	     58.23580345	     20.27806566	      6.88355426	    130.73223946	      2.28170802	      3.39715398	      0.23556426	      0.00000000	      0.00000000	    -89.95467328	     13.76334452	      5.06627816	    -60.77240496	   -119.85406573	    -72.81563553	     67.70929666	     21.79646160	      0.00000000	      0.00000000	     89.83539982	     15.04522713	     42.13122018	     31.23971248	     17.55394240	      0.00000000	      0.00000000
      5.02500000	     28.24496834	     16.41318884	     21.58641027	      0.08377622	      1.04576020	     -0.26498044	      0.00000000	      0.50000000	      0.00000000	      0.25000000	     -4.71866996	    -34.76458284	    -39.90976933	     65.15753917	      1.13721359	      4.64236986	     17.86925955	      0.00000000	      0.00000000	     59.24108353	     20.28359719	      6.51443591	    130.46531419	      2.27704929	      3.59833909	      0.24676704	      0.00000000	      0.00000000	    -89.95489043	     13.55211679	      5.21341054	    -60.73545101	   -119.85313649	    -72.67884630	     67.50944201	     22.16751859	      0.00000000	      0.00000000	     89.83254674	     15.08103668	     42.01618929	     31.29716335	     17.85651593	      0.00000000	      0.00000000
      5.03000000	     28.22319917	     16.44823375	     21.48928429	      0.08379874	      1.04634001	     -0.26447473	      0.00000000	      0.50000000	      0.00000000	      0.25000000	     -4.95923777	    -34.90388350	    -39.90997216	     65.62665219	      1.14540116	      3.15124739	     17.52602780	      0.00000000	      0.00000000	     60.06983471	     20.47651626	      6.18399346	    130.06954296	      2.27014178	      3.95822975	      0.32652468	      0.00000000	      0.00000000	    -89.95506064	     13.44628216	      5.26471414	    -60.78140933	   -119.85233463	    -72.66591065	     67.44438397	     22.07261293	      0.00000000	      0.00000000	     89.83041974	     15.10168521	     41.90527569	     31.33271416	     17.74964516	      0.00000000	      0.00000000
      5.03500000	     28.14411634	     16.77668359	     21.49714852	      0.08355755	      1.04701228	     -0.26431651	      0.00000000	      0.50000000	      0.00000000	      0.25000000	     -5.17955984	    -35.42654117	    -39.90998027	     66.35292520	      1.15807701	      1.66025225	     16.78586439	      0.00000000	      0.00000000	     60.72071163	     21.05693007	      5.64346710	    129.46947347	      2.25966859	      4.44490154	      0.30533711	      0.00000000	      0.00000000	    -89.95495632	     13.42952616	      4.99829700	    -60.86270062	   -119.85190792	    -72.72930617	     67.37150660	     21.94377584	      0.00000000	      0.00000000	     89.82924897	     15.08541489	     41.75781037	     31.38534361	     17.60373511	      0.00000000	      0.00000000
